<svg xmlns="http://www.w3.org/2000/svg" xmlns:xlink="http://www.w3.org/1999/xlink" width="64" height="64" viewBox="0 0 64 64">
  <defs>
    <path id="documenticon_p300-a" d="M42,28.0104 L42,46.0004 L22,46.0004 L22,18.0004 L33.98,18.0004 L33.98,22.9784 C33.98,24.6364 35.322,25.9784 36.98,25.9784 L45.98,25.9784 L45.98,24.9364 C45.98,24.3424 45.716,23.7804 45.262,23.4004 L35.114,14.9284 C34.394,14.3284 33.488,14.0004 32.55,14.0004 L22,14.0004 C19.79,14.0004 18,15.7904 18,18.0004 L18,46.0004 C18,48.2084 19.79,50.0004 22,50.0004 L42,50.0004 C44.21,50.0004 46,48.2084 46,46.0004 L46,28.0104 L42,28.0104 Z"/>
  </defs>
  <g fill="none" fill-rule="evenodd">
    <rect width="64" height="64" fill="#6554C0" rx="6"/>
    <use fill="#FFF" xlink:href="#documenticon_p300-a"/>
  </g>
</svg>
